<svg width="584" height="27" viewBox="0 0 584 27" fill="none" xmlns="http://www.w3.org/2000/svg">
<path d="M0.953353 0.999999H17.9034V4.87H5.78335V9.19H11.6034C14.1434 9.19 16.0734 9.72 17.3934 10.78C18.7334 11.84 19.4034 13.37 19.4034 15.37C19.4034 17.47 18.6634 19.1 17.1834 20.26C15.7034 21.42 13.6134 22 10.9134 22H0.953353V0.999999ZM10.6434 18.4C11.8834 18.4 12.8334 18.16 13.4934 17.68C14.1534 17.18 14.4834 16.46 14.4834 15.52C14.4834 13.68 13.2034 12.76 10.6434 12.76H5.78335V18.4H10.6434ZM39.9618 18.1V22H23.7018V0.999999H39.5718V4.9H28.5318V9.46H38.2818V13.24H28.5318V18.1H39.9618ZM54.3587 22.36C52.2187 22.36 50.2787 21.9 48.5387 20.98C46.8187 20.04 45.4587 18.75 44.4587 17.11C43.4787 15.45 42.9887 13.58 42.9887 11.5C42.9887 9.42 43.4787 7.56 44.4587 5.92C45.4587 4.26 46.8187 2.97 48.5387 2.05C50.2787 1.11 52.2287 0.64 54.3887 0.64C56.2087 0.64 57.8487 0.96 59.3087 1.6C60.7887 2.24 62.0287 3.16 63.0287 4.36L59.9087 7.24C58.4887 5.6 56.7287 4.78 54.6287 4.78C53.3287 4.78 52.1687 5.07 51.1487 5.65C50.1287 6.21 49.3287 7 48.7487 8.02C48.1887 9.04 47.9087 10.2 47.9087 11.5C47.9087 12.8 48.1887 13.96 48.7487 14.98C49.3287 16 50.1287 16.8 51.1487 17.38C52.1687 17.94 53.3287 18.22 54.6287 18.22C56.7287 18.22 58.4887 17.39 59.9087 15.73L63.0287 18.61C62.0287 19.83 60.7887 20.76 59.3087 21.4C57.8287 22.04 56.1787 22.36 54.3587 22.36ZM85.9363 0.999999V22H81.1063V4.96H71.6263V22H66.7963V0.999999H85.9363ZM110.316 0.999999V22H105.516V4.96H98.3155L98.1655 9.34C98.0655 12.32 97.8255 14.74 97.4455 16.6C97.0655 18.44 96.4255 19.86 95.5255 20.86C94.6455 21.84 93.4055 22.33 91.8055 22.33C91.1455 22.33 90.3455 22.22 89.4055 22L89.7055 17.89C89.9655 17.97 90.2555 18.01 90.5755 18.01C91.7355 18.01 92.5455 17.33 93.0055 15.97C93.4655 14.59 93.7555 12.44 93.8755 9.52L94.1755 0.999999H110.316ZM130.38 17.5H120.63L118.77 22H113.79L123.15 0.999999H127.95L137.34 22H132.24L130.38 17.5ZM128.85 13.81L125.52 5.77L122.19 13.81H128.85ZM155.721 4.96H149.001V22H144.201V4.96H137.511V0.999999H155.721V4.96ZM178.632 0.999999V22H173.772V13.39H164.232V22H159.372V0.999999H164.232V9.28H173.772V0.999999H178.632ZM198.714 17.5H188.964L187.104 22H182.124L191.484 0.999999H196.284L205.674 22H200.574L198.714 17.5ZM197.184 13.81L193.854 5.77L190.524 13.81H197.184ZM224.744 0.999999V22H219.944V16.42H215.504L211.784 22H206.654L211.034 15.67C209.614 15.09 208.524 14.22 207.764 13.06C207.004 11.88 206.624 10.47 206.624 8.83C206.624 7.21 206.994 5.82 207.734 4.66C208.474 3.48 209.524 2.58 210.884 1.96C212.244 1.32 213.844 0.999999 215.684 0.999999H224.744ZM215.804 4.96C214.424 4.96 213.364 5.28 212.624 5.92C211.904 6.56 211.544 7.51 211.544 8.77C211.544 9.99 211.894 10.93 212.594 11.59C213.294 12.25 214.324 12.58 215.684 12.58H219.944V4.96H215.804ZM261.362 18.04V26.35H256.862V22H242.042V26.35H237.542L237.572 18.04H238.412C239.672 18 240.562 17.08 241.082 15.28C241.602 13.48 241.922 10.91 242.042 7.57L242.282 0.999999H258.422V18.04H261.362ZM246.332 8.02C246.232 10.52 246.022 12.62 245.702 14.32C245.382 16 244.892 17.24 244.232 18.04H253.622V4.96H246.422L246.332 8.02ZM275.253 22.36C273.073 22.36 271.103 21.89 269.343 20.95C267.603 20.01 266.233 18.72 265.233 17.08C264.253 15.42 263.763 13.56 263.763 11.5C263.763 9.44 264.253 7.59 265.233 5.95C266.233 4.29 267.603 2.99 269.343 2.05C271.103 1.11 273.073 0.64 275.253 0.64C277.433 0.64 279.393 1.11 281.133 2.05C282.873 2.99 284.243 4.29 285.243 5.95C286.243 7.59 286.743 9.44 286.743 11.5C286.743 13.56 286.243 15.42 285.243 17.08C284.243 18.72 282.873 20.01 281.133 20.95C279.393 21.89 277.433 22.36 275.253 22.36ZM275.253 18.22C276.493 18.22 277.613 17.94 278.613 17.38C279.613 16.8 280.393 16 280.953 14.98C281.533 13.96 281.823 12.8 281.823 11.5C281.823 10.2 281.533 9.04 280.953 8.02C280.393 7 279.613 6.21 278.613 5.65C277.613 5.07 276.493 4.78 275.253 4.78C274.013 4.78 272.893 5.07 271.893 5.65C270.893 6.21 270.103 7 269.523 8.02C268.963 9.04 268.683 10.2 268.683 11.5C268.683 12.8 268.963 13.96 269.523 14.98C270.103 16 270.893 16.8 271.893 17.38C272.893 17.94 274.013 18.22 275.253 18.22ZM301.017 22.36C298.877 22.36 296.937 21.9 295.197 20.98C293.477 20.04 292.117 18.75 291.117 17.11C290.137 15.45 289.647 13.58 289.647 11.5C289.647 9.42 290.137 7.56 291.117 5.92C292.117 4.26 293.477 2.97 295.197 2.05C296.937 1.11 298.887 0.64 301.047 0.64C302.867 0.64 304.507 0.96 305.967 1.6C307.447 2.24 308.687 3.16 309.687 4.36L306.567 7.24C305.147 5.6 303.387 4.78 301.287 4.78C299.987 4.78 298.827 5.07 297.807 5.65C296.787 6.21 295.987 7 295.407 8.02C294.847 9.04 294.567 10.2 294.567 11.5C294.567 12.8 294.847 13.96 295.407 14.98C295.987 16 296.787 16.8 297.807 17.38C298.827 17.94 299.987 18.22 301.287 18.22C303.387 18.22 305.147 17.39 306.567 15.73L309.687 18.61C308.687 19.83 307.447 20.76 305.967 21.4C304.487 22.04 302.837 22.36 301.017 22.36ZM329.3 4.96H322.58V22H317.78V4.96H311.09V0.999999H329.3V4.96ZM346.117 17.5H336.367L334.507 22H329.527L338.887 0.999999H343.687L353.077 22H347.977L346.117 17.5ZM344.587 13.81L341.257 5.77L337.927 13.81H344.587ZM371.012 11.05C372.292 11.43 373.272 12.05 373.952 12.91C374.632 13.77 374.972 14.83 374.972 16.09C374.972 17.95 374.262 19.4 372.842 20.44C371.442 21.48 369.432 22 366.812 22H356.462V0.999999H366.242C368.682 0.999999 370.582 1.47 371.942 2.41C373.302 3.35 373.982 4.69 373.982 6.43C373.982 7.47 373.722 8.39 373.202 9.19C372.682 9.97 371.952 10.59 371.012 11.05ZM361.292 9.7H365.822C366.882 9.7 367.682 9.49 368.222 9.07C368.762 8.63 369.032 7.99 369.032 7.15C369.032 6.33 368.752 5.7 368.192 5.26C367.652 4.82 366.862 4.6 365.822 4.6H361.292V9.7ZM366.632 18.4C368.912 18.4 370.052 17.5 370.052 15.7C370.052 13.96 368.912 13.09 366.632 13.09H361.292V18.4H366.632ZM387.545 13.54H384.185V22H379.355V0.999999H384.185V9.49H387.665L393.185 0.999999H398.315L391.445 11.14L398.525 22H393.005L387.545 13.54ZM415.212 17.5H405.462L403.602 22H398.622L407.982 0.999999H412.782L422.172 22H417.072L415.212 17.5ZM413.682 13.81L410.352 5.77L407.022 13.81H413.682ZM444.793 22.18C442.713 22.18 440.823 21.72 439.123 20.8C437.443 19.86 436.123 18.58 435.163 16.96C434.223 15.34 433.753 13.52 433.753 11.5C433.753 9.48 434.223 7.66 435.163 6.04C436.123 4.42 437.443 3.15 439.123 2.23C440.823 1.29 442.713 0.819999 444.793 0.819999C446.873 0.819999 448.743 1.28 450.403 2.2C452.083 3.12 453.403 4.4 454.363 6.04C455.323 7.66 455.803 9.48 455.803 11.5C455.803 13.52 455.323 15.35 454.363 16.99C453.403 18.61 452.083 19.88 450.403 20.8C448.743 21.72 446.873 22.18 444.793 22.18ZM444.793 20.2C446.453 20.2 447.953 19.83 449.293 19.09C450.633 18.33 451.683 17.29 452.443 15.97C453.203 14.63 453.583 13.14 453.583 11.5C453.583 9.86 453.203 8.38 452.443 7.06C451.683 5.72 450.633 4.68 449.293 3.94C447.953 3.18 446.453 2.8 444.793 2.8C443.133 2.8 441.623 3.18 440.263 3.94C438.923 4.68 437.863 5.72 437.083 7.06C436.323 8.38 435.943 9.86 435.943 11.5C435.943 13.14 436.323 14.63 437.083 15.97C437.863 17.29 438.923 18.33 440.263 19.09C441.623 19.83 443.133 20.2 444.793 20.2ZM475.147 2.92H467.767V22H465.577V2.92H458.197V0.999999H475.147V2.92ZM493.255 10C495.455 10.12 497.125 10.72 498.265 11.8C499.425 12.86 500.005 14.25 500.005 15.97C500.005 17.17 499.715 18.24 499.135 19.18C498.555 20.1 497.695 20.83 496.555 21.37C495.415 21.91 494.025 22.18 492.385 22.18C490.865 22.18 489.425 21.94 488.065 21.46C486.725 20.96 485.645 20.3 484.825 19.48L485.875 17.77C486.575 18.49 487.505 19.08 488.665 19.54C489.825 19.98 491.065 20.2 492.385 20.2C494.105 20.2 495.435 19.83 496.375 19.09C497.315 18.33 497.785 17.29 497.785 15.97C497.785 14.67 497.315 13.65 496.375 12.91C495.435 12.17 494.015 11.8 492.115 11.8H490.615V10.21L496.435 2.92H485.695V0.999999H499.195V2.53L493.255 10ZM512.019 22.18C510.399 22.18 508.949 21.75 507.669 20.89C506.409 20.03 505.419 18.8 504.699 17.2C503.999 15.58 503.649 13.68 503.649 11.5C503.649 9.32 503.999 7.43 504.699 5.83C505.419 4.21 506.409 2.97 507.669 2.11C508.949 1.25 510.399 0.819999 512.019 0.819999C513.639 0.819999 515.079 1.25 516.339 2.11C517.619 2.97 518.619 4.21 519.339 5.83C520.059 7.43 520.419 9.32 520.419 11.5C520.419 13.68 520.059 15.58 519.339 17.2C518.619 18.8 517.619 20.03 516.339 20.89C515.079 21.75 513.639 22.18 512.019 22.18ZM512.019 20.2C513.239 20.2 514.309 19.86 515.229 19.18C516.169 18.5 516.899 17.51 517.419 16.21C517.939 14.91 518.199 13.34 518.199 11.5C518.199 9.66 517.939 8.09 517.419 6.79C516.899 5.49 516.169 4.5 515.229 3.82C514.309 3.14 513.239 2.8 512.019 2.8C510.799 2.8 509.719 3.14 508.779 3.82C507.859 4.5 507.139 5.49 506.619 6.79C506.099 8.09 505.839 9.66 505.839 11.5C505.839 13.34 506.099 14.91 506.619 16.21C507.139 17.51 507.859 18.5 508.779 19.18C509.719 19.86 510.799 20.2 512.019 20.2ZM532.482 22.18C530.862 22.18 529.412 21.75 528.132 20.89C526.872 20.03 525.882 18.8 525.162 17.2C524.462 15.58 524.112 13.68 524.112 11.5C524.112 9.32 524.462 7.43 525.162 5.83C525.882 4.21 526.872 2.97 528.132 2.11C529.412 1.25 530.862 0.819999 532.482 0.819999C534.102 0.819999 535.542 1.25 536.802 2.11C538.082 2.97 539.082 4.21 539.802 5.83C540.522 7.43 540.882 9.32 540.882 11.5C540.882 13.68 540.522 15.58 539.802 17.2C539.082 18.8 538.082 20.03 536.802 20.89C535.542 21.75 534.102 22.18 532.482 22.18ZM532.482 20.2C533.702 20.2 534.772 19.86 535.692 19.18C536.632 18.5 537.362 17.51 537.882 16.21C538.402 14.91 538.662 13.34 538.662 11.5C538.662 9.66 538.402 8.09 537.882 6.79C537.362 5.49 536.632 4.5 535.692 3.82C534.772 3.14 533.702 2.8 532.482 2.8C531.262 2.8 530.182 3.14 529.242 3.82C528.322 4.5 527.602 5.49 527.082 6.79C526.562 8.09 526.302 9.66 526.302 11.5C526.302 13.34 526.562 14.91 527.082 16.21C527.602 17.51 528.322 18.5 529.242 19.18C530.182 19.86 531.262 20.2 532.482 20.2ZM552.946 22.18C551.326 22.18 549.876 21.75 548.596 20.89C547.336 20.03 546.346 18.8 545.626 17.2C544.926 15.58 544.576 13.68 544.576 11.5C544.576 9.32 544.926 7.43 545.626 5.83C546.346 4.21 547.336 2.97 548.596 2.11C549.876 1.25 551.326 0.819999 552.946 0.819999C554.566 0.819999 556.006 1.25 557.266 2.11C558.546 2.97 559.546 4.21 560.266 5.83C560.986 7.43 561.346 9.32 561.346 11.5C561.346 13.68 560.986 15.58 560.266 17.2C559.546 18.8 558.546 20.03 557.266 20.89C556.006 21.75 554.566 22.18 552.946 22.18ZM552.946 20.2C554.166 20.2 555.236 19.86 556.156 19.18C557.096 18.5 557.826 17.51 558.346 16.21C558.866 14.91 559.126 13.34 559.126 11.5C559.126 9.66 558.866 8.09 558.346 6.79C557.826 5.49 557.096 4.5 556.156 3.82C555.236 3.14 554.166 2.8 552.946 2.8C551.726 2.8 550.646 3.14 549.706 3.82C548.786 4.5 548.066 5.49 547.546 6.79C547.026 8.09 546.766 9.66 546.766 11.5C546.766 13.34 547.026 14.91 547.546 16.21C548.066 17.51 548.786 18.5 549.706 19.18C550.646 19.86 551.726 20.2 552.946 20.2ZM569.749 14.95V16.78H576.499V18.1H569.749V22H567.529V18.1H564.379V16.78H567.529V0.999999H575.389C578.089 0.999999 580.189 1.61 581.689 2.83C583.209 4.03 583.969 5.74 583.969 7.96C583.969 10.2 583.209 11.93 581.689 13.15C580.189 14.35 578.089 14.95 575.389 14.95H569.749ZM569.749 2.92V13.06H575.419C577.459 13.06 579.019 12.62 580.099 11.74C581.199 10.86 581.749 9.61 581.749 7.99C581.749 6.37 581.199 5.12 580.099 4.24C579.019 3.36 577.459 2.92 575.419 2.92H569.749Z" fill="white"/>
</svg>
