<svg width="307" height="22" viewBox="0 0 307 22" fill="none" xmlns="http://www.w3.org/2000/svg">
<path d="M16.192 17L16.168 4.76L10.096 14.96H8.992L2.92 4.832V17H0.616V0.199999H2.584L9.592 12.008L16.504 0.199999H18.472L18.496 17H16.192ZM38.1974 0.199999L30.7334 14.048C30.1414 15.152 29.4454 15.976 28.6454 16.52C27.8454 17.064 26.9734 17.336 26.0294 17.336C25.2934 17.336 24.5414 17.168 23.7734 16.832L24.3974 14.912C24.9894 15.12 25.5174 15.224 25.9814 15.224C27.0374 15.224 27.9094 14.664 28.5974 13.544L28.9814 12.944L22.2134 0.199999H24.7814L30.2294 10.856L35.8214 0.199999H38.1974ZM55.3086 9.608H52.1166V17H49.7646V9.608H46.5486L41.8446 17H39.0366L44.5806 8.264L39.4446 0.199999H42.0126L46.5006 7.496H49.7646V0.199999H52.1166V7.496H55.3326L59.8446 0.199999H62.4126L57.2766 8.312L62.8206 17H60.0126L55.3086 9.608ZM73.5224 17.192C71.8424 17.192 70.3224 16.824 68.9624 16.088C67.6184 15.336 66.5624 14.312 65.7944 13.016C65.0264 11.704 64.6424 10.232 64.6424 8.6C64.6424 6.968 65.0264 5.504 65.7944 4.208C66.5624 2.896 67.6264 1.872 68.9864 1.136C70.3464 0.384 71.8664 0.0079999 73.5464 0.0079999C74.8584 0.0079999 76.0584 0.232 77.1464 0.68C78.2344 1.112 79.1624 1.76 79.9304 2.624L78.3704 4.136C77.1064 2.808 75.5304 2.144 73.6424 2.144C72.3944 2.144 71.2664 2.424 70.2584 2.984C69.2504 3.544 68.4584 4.32 67.8824 5.312C67.3224 6.288 67.0424 7.384 67.0424 8.6C67.0424 9.816 67.3224 10.92 67.8824 11.912C68.4584 12.888 69.2504 13.656 70.2584 14.216C71.2664 14.776 72.3944 15.056 73.6424 15.056C75.5144 15.056 77.0904 14.384 78.3704 13.04L79.9304 14.552C79.1624 15.416 78.2264 16.072 77.1224 16.52C76.0344 16.968 74.8344 17.192 73.5224 17.192ZM89.8129 9.608H86.3089V17H83.9569V0.199999H86.3089V7.496H89.8609L95.1409 0.199999H97.7089L91.7089 8.336L97.9969 17H95.2609L89.8129 9.608ZM111.863 12.8H102.935L101.087 17H98.6146L106.223 0.199999H108.599L116.231 17H113.711L111.863 12.8ZM111.023 10.88L107.399 2.648L103.775 10.88H111.023ZM131.365 0.199999V17H129.013V12.104H124.381C124.093 12.104 123.877 12.096 123.733 12.08L120.373 17H117.829L121.549 11.672C120.349 11.272 119.429 10.608 118.789 9.68C118.149 8.736 117.829 7.592 117.829 6.248C117.829 4.344 118.437 2.864 119.653 1.808C120.885 0.735999 122.541 0.199999 124.621 0.199999H131.365ZM120.253 6.224C120.253 7.472 120.613 8.432 121.333 9.104C122.069 9.76 123.149 10.088 124.573 10.088H129.013V2.288H124.717C123.277 2.288 122.173 2.624 121.405 3.296C120.637 3.968 120.253 4.944 120.253 6.224ZM149.876 9.032H145.844V17H144.62V0.199999H145.844V7.928H149.9L155.924 0.199999H157.292L150.86 8.384L157.724 17H156.284L149.876 9.032ZM168.618 17.12C166.97 17.12 165.482 16.752 164.154 16.016C162.826 15.264 161.778 14.24 161.01 12.944C160.258 11.648 159.882 10.2 159.882 8.6C159.882 7 160.258 5.552 161.01 4.256C161.778 2.96 162.826 1.944 164.154 1.208C165.482 0.455999 166.97 0.079999 168.618 0.079999C170.266 0.079999 171.754 0.447999 173.082 1.184C174.41 1.92 175.45 2.936 176.202 4.232C176.97 5.528 177.354 6.984 177.354 8.6C177.354 10.216 176.97 11.672 176.202 12.968C175.45 14.264 174.41 15.28 173.082 16.016C171.754 16.752 170.266 17.12 168.618 17.12ZM168.618 15.992C170.026 15.992 171.298 15.672 172.434 15.032C173.57 14.392 174.466 13.512 175.122 12.392C175.778 11.256 176.106 9.992 176.106 8.6C176.106 7.208 175.778 5.952 175.122 4.832C174.466 3.696 173.57 2.808 172.434 2.168C171.298 1.528 170.026 1.208 168.618 1.208C167.21 1.208 165.93 1.528 164.778 2.168C163.642 2.808 162.746 3.696 162.09 4.832C161.434 5.952 161.106 7.208 161.106 8.6C161.106 9.992 161.434 11.256 162.09 12.392C162.746 13.512 163.642 14.392 164.778 15.032C165.93 15.672 167.21 15.992 168.618 15.992ZM194.826 0.199999V17H193.602V1.304H184.914L184.698 7.472C184.602 9.776 184.402 11.632 184.098 13.04C183.81 14.432 183.378 15.464 182.802 16.136C182.226 16.808 181.466 17.144 180.522 17.144C180.09 17.144 179.69 17.096 179.322 17L179.466 15.872C179.738 15.936 180.002 15.968 180.258 15.968C180.994 15.968 181.586 15.688 182.034 15.128C182.498 14.552 182.85 13.648 183.09 12.416C183.33 11.184 183.49 9.544 183.57 7.496L183.81 0.199999H194.826ZM213.992 0.199999V17H212.768V1.304H204.08L203.864 7.472C203.768 9.776 203.568 11.632 203.264 13.04C202.976 14.432 202.544 15.464 201.968 16.136C201.392 16.808 200.632 17.144 199.688 17.144C199.256 17.144 198.856 17.096 198.488 17L198.632 15.872C198.904 15.936 199.168 15.968 199.424 15.968C200.16 15.968 200.752 15.688 201.2 15.128C201.664 14.552 202.016 13.648 202.256 12.416C202.496 11.184 202.656 9.544 202.736 7.496L202.976 0.199999H213.992ZM232.358 15.896V17H220.766V0.199999H231.998V1.304H221.99V7.928H230.942V9.008H221.99V15.896H232.358ZM242.421 9.032H238.389V17H237.165V0.199999H238.389V7.928H242.445L248.469 0.199999H249.837L243.405 8.384L250.269 17H248.829L242.421 9.032ZM269.971 15.896V21.056H268.819V17H253.987V0.199999H255.211V15.896H266.035V0.199999H267.259V15.896H269.971ZM274.488 0.199999H275.712V14.936L287.16 0.199999H288.24V17H287.016V2.288L275.568 17H274.488V0.199999ZM306.533 0.199999V17H305.309V11.72H299.957C299.541 11.72 299.149 11.696 298.781 11.648L295.061 17H293.741L297.629 11.432C296.381 11.08 295.421 10.448 294.749 9.536C294.077 8.608 293.741 7.448 293.741 6.056C293.741 4.2 294.317 2.76 295.469 1.736C296.637 0.711999 298.213 0.199999 300.197 0.199999H306.533ZM294.989 6.032C294.989 7.52 295.421 8.664 296.285 9.464C297.149 10.264 298.413 10.664 300.077 10.664H305.309V1.304H300.293C298.597 1.304 297.285 1.712 296.357 2.528C295.445 3.328 294.989 4.496 294.989 6.032Z" fill="black"/>
</svg>
