<svg width="306" height="22" viewBox="0 0 306 22" fill="none" xmlns="http://www.w3.org/2000/svg">
<path d="M16.728 9.608H13.536V17H11.184V9.608H7.968L3.264 17H0.456L6 8.264L0.864 0.199999H3.432L7.92 7.496H11.184V0.199999H13.536V7.496H16.752L21.264 0.199999H23.832L18.696 8.312L24.24 17H21.432L16.728 9.608ZM39.6686 14.912V17H27.4766V0.199999H39.3326V2.288H29.8766V7.448H38.3006V9.488H29.8766V14.912H39.6686ZM58.6056 0.199999V17H56.2056V9.512H46.5576V17H44.1576V0.199999H46.5576V7.424H56.2056V0.199999H58.6056ZM72.0771 17.192C70.3971 17.192 68.8771 16.824 67.5171 16.088C66.1731 15.336 65.1171 14.312 64.3491 13.016C63.5811 11.704 63.1971 10.232 63.1971 8.6C63.1971 6.968 63.5811 5.504 64.3491 4.208C65.1171 2.896 66.1811 1.872 67.5411 1.136C68.9011 0.384 70.4211 0.0079999 72.1011 0.0079999C73.4131 0.0079999 74.6131 0.232 75.7011 0.68C76.7891 1.112 77.7171 1.76 78.4851 2.624L76.9251 4.136C75.6611 2.808 74.0851 2.144 72.1971 2.144C70.9491 2.144 69.8211 2.424 68.8131 2.984C67.8051 3.544 67.0131 4.32 66.4371 5.312C65.8771 6.288 65.5971 7.384 65.5971 8.6C65.5971 9.816 65.8771 10.92 66.4371 11.912C67.0131 12.888 67.8051 13.656 68.8131 14.216C69.8211 14.776 70.9491 15.056 72.1971 15.056C74.0691 15.056 75.6451 14.384 76.9251 13.04L78.4851 14.552C77.7171 15.416 76.7811 16.072 75.6771 16.52C74.5891 16.968 73.3891 17.192 72.0771 17.192ZM88.3676 9.608H84.8636V17H82.5116V0.199999H84.8636V7.496H88.4156L93.6956 0.199999H96.2636L90.2636 8.336L96.5516 17H93.8156L88.3676 9.608ZM110.417 12.8H101.489L99.6412 17H97.1692L104.777 0.199999H107.153L114.785 17H112.265L110.417 12.8ZM109.577 10.88L105.953 2.648L102.329 10.88H109.577ZM129.92 0.199999V17H127.568V12.104H122.936C122.648 12.104 122.432 12.096 122.288 12.08L118.928 17H116.384L120.104 11.672C118.904 11.272 117.984 10.608 117.344 9.68C116.704 8.736 116.384 7.592 116.384 6.248C116.384 4.344 116.992 2.864 118.208 1.808C119.44 0.735999 121.096 0.199999 123.176 0.199999H129.92ZM118.808 6.224C118.808 7.472 119.168 8.432 119.888 9.104C120.624 9.76 121.704 10.088 123.128 10.088H127.568V2.288H123.272C121.832 2.288 120.728 2.624 119.96 3.296C119.192 3.968 118.808 4.944 118.808 6.224ZM148.431 9.032H144.399V17H143.175V0.199999H144.399V7.928H148.455L154.479 0.199999H155.847L149.415 8.384L156.279 17H154.839L148.431 9.032ZM167.173 17.12C165.525 17.12 164.037 16.752 162.709 16.016C161.381 15.264 160.333 14.24 159.565 12.944C158.813 11.648 158.437 10.2 158.437 8.6C158.437 7 158.813 5.552 159.565 4.256C160.333 2.96 161.381 1.944 162.709 1.208C164.037 0.455999 165.525 0.079999 167.173 0.079999C168.821 0.079999 170.309 0.447999 171.637 1.184C172.965 1.92 174.005 2.936 174.757 4.232C175.525 5.528 175.909 6.984 175.909 8.6C175.909 10.216 175.525 11.672 174.757 12.968C174.005 14.264 172.965 15.28 171.637 16.016C170.309 16.752 168.821 17.12 167.173 17.12ZM167.173 15.992C168.581 15.992 169.853 15.672 170.989 15.032C172.125 14.392 173.021 13.512 173.677 12.392C174.333 11.256 174.661 9.992 174.661 8.6C174.661 7.208 174.333 5.952 173.677 4.832C173.021 3.696 172.125 2.808 170.989 2.168C169.853 1.528 168.581 1.208 167.173 1.208C165.765 1.208 164.485 1.528 163.333 2.168C162.197 2.808 161.301 3.696 160.645 4.832C159.989 5.952 159.661 7.208 159.661 8.6C159.661 9.992 159.989 11.256 160.645 12.392C161.301 13.512 162.197 14.392 163.333 15.032C164.485 15.672 165.765 15.992 167.173 15.992ZM193.381 0.199999V17H192.157V1.304H183.469L183.253 7.472C183.157 9.776 182.957 11.632 182.653 13.04C182.365 14.432 181.933 15.464 181.357 16.136C180.781 16.808 180.021 17.144 179.077 17.144C178.645 17.144 178.245 17.096 177.877 17L178.021 15.872C178.293 15.936 178.557 15.968 178.813 15.968C179.549 15.968 180.141 15.688 180.589 15.128C181.053 14.552 181.405 13.648 181.645 12.416C181.885 11.184 182.045 9.544 182.125 7.496L182.365 0.199999H193.381ZM212.546 0.199999V17H211.322V1.304H202.634L202.418 7.472C202.322 9.776 202.122 11.632 201.818 13.04C201.53 14.432 201.098 15.464 200.522 16.136C199.946 16.808 199.186 17.144 198.242 17.144C197.81 17.144 197.41 17.096 197.042 17L197.186 15.872C197.458 15.936 197.722 15.968 197.978 15.968C198.714 15.968 199.306 15.688 199.754 15.128C200.218 14.552 200.57 13.648 200.81 12.416C201.05 11.184 201.21 9.544 201.29 7.496L201.53 0.199999H212.546ZM230.912 15.896V17H219.32V0.199999H230.552V1.304H220.544V7.928H229.496V9.008H220.544V15.896H230.912ZM240.976 9.032H236.944V17H235.72V0.199999H236.944V7.928H241L247.024 0.199999H248.392L241.96 8.384L248.824 17H247.384L240.976 9.032ZM268.526 15.896V21.056H267.374V17H252.542V0.199999H253.766V15.896H264.59V0.199999H265.814V15.896H268.526ZM273.043 0.199999H274.267V14.936L285.715 0.199999H286.795V17H285.571V2.288L274.123 17H273.043V0.199999ZM305.087 0.199999V17H303.863V11.72H298.511C298.095 11.72 297.703 11.696 297.335 11.648L293.615 17H292.295L296.183 11.432C294.935 11.08 293.975 10.448 293.303 9.536C292.631 8.608 292.295 7.448 292.295 6.056C292.295 4.2 292.871 2.76 294.023 1.736C295.191 0.711999 296.767 0.199999 298.751 0.199999H305.087ZM293.543 6.032C293.543 7.52 293.975 8.664 294.839 9.464C295.703 10.264 296.967 10.664 298.631 10.664H303.863V1.304H298.847C297.151 1.304 295.839 1.712 294.911 2.528C293.999 3.328 293.543 4.496 293.543 6.032Z" fill="black"/>
</svg>
